<?xml version="1.0" encoding="UTF-8" standalone="no"?>
<!DOCTYPE svg PUBLIC "-//W3C//DTD SVG 1.1//EN" "http://www.w3.org/Graphics/SVG/1.1/DTD/svg11.dtd">
<svg width="163" height="200" viewBox="0 0 163 200" fill="none" xmlns="http://www.w3.org/2000/svg">
    <path d="M137.5 0H50C43.3696 0 37.0107 2.63392 32.3223 7.32233C27.6339 12.0107 25 18.3696 25 25C18.3696 25 12.0107 27.6339 7.32233 32.3223C2.63392 37.0107 0 43.3696 0 50V175C0 181.63 2.63392 187.989 7.32233 192.678C12.0107 197.366 18.3696 200 25 200H112.5C119.13 200 125.489 197.366 130.178 192.678C134.866 187.989 137.5 181.63 137.5 175C144.13 175 150.489 172.366 155.178 167.678C159.866 162.989 162.5 156.63 162.5 150V25C162.5 18.3696 159.866 12.0107 155.178 7.32233C150.489 2.63392 144.13 0 137.5 0ZM137.5 150V37.5L133.839 28.6612L125 25H50C46 25 43.5 22.8441 43.5 19C43.5 15.1559 46 12.5 50 12.5H137.5C140.815 12.5 143.995 13.817 146.339 16.1612C148.683 18.5054 150 21.6848 150 25V150C150 154 148.5 159 143.5 159C138.5 159 137.5 154 137.5 150ZM12.5 50C12.5 46.6848 13.817 43.5054 16.1612 41.1612C18.5054 38.817 21.6848 37.5 25 37.5H112.5C115.815 37.5 118.995 38.817 121.339 41.1612C123.683 43.5054 125 46.6848 125 50V175C125 178.315 123.683 181.495 121.339 183.839C118.995 186.183 115.815 187.5 112.5 187.5H25C21.6848 187.5 17.8223 185.5 16.1612 183.839C14.5 182.178 12.5 178.315 12.5 175V50Z"
          fill="#FDFAFD"/>
    <path d="M133.839 28.6612L125 25C128.315 25 131.495 26.317 133.839 28.6612Z" fill="#FDFAFD"/>
    <path d="M137.5 37.5L133.839 28.6612C136.183 31.0054 137.5 34.1848 137.5 37.5Z" fill="#FDFAFD"/>
</svg>
