<?xml version="1.0" encoding="UTF-8" standalone="no"?>
<!DOCTYPE svg PUBLIC "-//W3C//DTD SVG 1.1//EN" "http://www.w3.org/Graphics/SVG/1.1/DTD/svg11.dtd">
<svg width="370" height="456" viewBox="0 0 370 456" fill="none" xmlns="http://www.w3.org/2000/svg">
    <path d="M313.077 0H113.846C98.7492 0 84.2706 6.00534 73.5955 16.6949C62.9203 27.3845 56.9231 41.8827 56.9231 57C41.8261 57 27.3475 63.0053 16.6724 73.6949C5.99723 84.3845 0 98.8827 0 114V399C0 414.117 5.99723 428.615 16.6724 439.305C27.3475 449.995 41.8261 456 56.9231 456H256.154C271.251 456 285.729 449.995 296.405 439.305C307.08 428.615 313.077 414.117 313.077 399C328.174 399 342.652 392.995 353.328 382.305C364.003 371.615 370 357.117 370 342V57C370 41.8827 364.003 27.3845 353.328 16.6949C342.652 6.00534 328.174 0 313.077 0ZM313.077 342V85.5L304.741 65.3475L284.615 57H113.846C104.738 57 99.0462 52.0845 99.0462 43.32C99.0462 34.5555 104.738 28.5 113.846 28.5H313.077C320.625 28.5 327.865 31.5027 333.202 36.8475C338.54 42.1922 341.538 49.4413 341.538 57V342C341.538 351.12 338.123 362.52 326.738 362.52C315.354 362.52 313.077 351.12 313.077 342ZM28.4615 114C28.4615 106.441 31.4602 99.1922 36.7977 93.8475C42.1353 88.5027 49.3746 85.5 56.9231 85.5H256.154C263.702 85.5 270.942 88.5027 276.279 93.8475C281.617 99.1922 284.615 106.441 284.615 114V399C284.615 406.559 281.617 413.808 276.279 419.153C270.942 424.497 263.702 427.5 256.154 427.5H56.9231C49.3746 427.5 40.5801 422.94 36.7977 419.153C33.0154 415.365 28.4615 406.559 28.4615 399V114Z"
          fill="#FDFAFD"/>
    <path d="M304.741 65.3475L284.615 57C292.164 57 299.403 60.0027 304.741 65.3475Z" fill="#FDFAFD"/>
    <path d="M313.077 85.5L304.741 65.3475C310.078 70.6922 313.077 77.9413 313.077 85.5Z" fill="#FDFAFD"/>
</svg>
